Source: Pan's.Labyrinth.2006.720p.BluRay.DTS.x264-FiNE

Subs: Arabic, Brazilian, Danish, Dutch, English, German, Greek, Polish, Portuguese, Romanian, Servian, Spanish, Turkish and Vietnamese.

Sample and Screens included.

General
Complete name                    : Pans Labyrinth-720p MP4 AAC x264 BRRip 2006-CC.mp4
Format                           : MPEG-4
Format profile                   : Base Media
Codec ID                         : isom
File size                        : 2.10 GiB
Duration                         : 1h 58mn
Overall bit rate                 : 2 532 Kbps
Encoded date                     : UTC 2012-05-29 17:04:19

Video
ID                               : 1
Format                           : AVC
Format/Info                      : Advanced Video Codec
Format profile                   : High@L3.1
Format settings, CABAC           : Yes
Format settings, ReFrames        : 5 frames
Codec ID                         : avc1
Codec ID/Info                    : Advanced Video Coding
Duration                         : 1h 58mn
Bit rate mode                    : Variable
Bit rate                         : 2 144 Kbps
Nominal bit rate                 : 2 209 Kbps
Maximum bit rate                 : 18.4 Mbps
Width                            : 1 280 pixels
Height                           : 688 pixels
Display aspect ratio             : 1.860
Frame rate mode                  : Variable
Frame rate                       : 23.976 fps
Minimum frame rate               : 19.173 fps
Maximum frame rate               : 23.981 fps
Resolution                       : 24 bits
Colorimetry                      : 4:2:0
Scan type                        : Progressive
Bits/(Pixel*Frame)               : 0.102
Stream size                      : 1.78 GiB (85%)
Writing library                  : x264 core 112

Audio ( Spanish )
ID                               : 2
Format                           : AAC
Format/Info                      : Advanced Audio Codec
Format version                   : Version 4
Format profile                   : LC
Format settings, SBR             : No
Codec ID                         : 40
Duration                         : 1h 58mn
Bit rate mode                    : Variable
Bit rate                         : 384 Kbps
Maximum bit rate                 : 615 Kbps
Channel(s)                       : 6 channels
Channel positions                : Front: L C R, Rear: L R, LFE
Sampling rate                    : 48.0 KHz
Resolution                       : 16 bits
Stream size                      : 327 MiB (15%)


Enjoy...

Requested by DreamExtractor.